# xmcd
#
# Track frame offsets:
#	182
#	10982
#	23515
#	39545
#	57820
#	70320
#	86065
#	96695
#	108975
#	131585
#	141335
#	160980
#
# Disc length: 2314 seconds
#
# Revision: 1
# Processed by: cddbd v1.4PL0 Copyright (c) Steve Scherf et al.
# Submitted via: audiograbber 1.81.02
#
DISCID=a409080c
DTITLE=Various Artist - Legendary Blues Classics (Disk 2)
DYEAR=1991
DGENRE=Blues
TTITLE0=Jimmy Reed - Baby What You Want Me To Do
TTITLE1=Louis Jordan - Let The Good Times Roll
TTITLE2=Frankie Lee Sims - Walkin' With Frankie
TTITLE3=Percy Mayfield - Strange Things Happening
TTITLE4=John Lee Hooker - Crawlin' Kingsnake
TTITLE5=Elmore James - Standing At The Crossroads
TTITLE6=Lightnin' Hopkins - Nothin' But The Blues
TTITLE7=Ray Charles - I've Had My Fun (Goin' Down Slow)
TTITLE8=Roy Brown - Love For Sale
TTITLE9=Gene Allison - You Can Make It If You Try
TTITLE10=Muddy Waters - Where's My Woman Been
TTITLE11=Memphis Slim - Sassy Mae
EXTD=Licensed by Intermusic @1991 Manufactured by Creative Sounds, Ltd.
EXTT0=
EXTT1=
EXTT2=
EXTT3=
EXTT4=
EXTT5=
EXTT6=
EXTT7=
EXTT8=
EXTT9=
EXTT10=
EXTT11=
PLAYORDER=
